<?xml version="1.0" encoding="utf-8"?>
<!-- Generator: Adobe Illustrator 23.0.3, SVG Export Plug-In . SVG Version: 6.00 Build 0)  -->
<svg version="1.1" id="Layer_1" xmlns="http://www.w3.org/2000/svg" xmlns:xlink="http://www.w3.org/1999/xlink" x="0px" y="0px"
	 viewBox="0 0 131 29" style="enable-background:new 0 0 131 29;" xml:space="preserve">
<style type="text/css">
	.st0{fill:#FFFFFF;}
</style>
<title>Group 10</title>
<desc>Created with Sketch.</desc>
<g>
	<path class="st0" d="M12.6,22.4c0-4.2,0.8-6.8,1-7.1c0.3-0.4,1-0.6,1.3-0.6c0.5,0,0.6,0.2,0.6,0.6c-0.1,0-0.7,4.1-0.7,7.2
		c0,1.8,0.2,3.3,1,3.3c1.1,0,1.9-4.8,2.3-6.6c0.2-0.6,1.1-1.1,1.7-1.1c0.2,0,0.3,0.2,0.3,0.5c0,3.8,1,7.3,2.4,7.3
		c1,0,1.8-1.8,1.9-2.8c-1.7-0.7-3-3.3-3-5.8c0-1.4,0.6-2.8,1.8-2.8c1.7,0,2.5,2.2,2.5,4.8c0,0.9-0.1,2.2-0.3,3.2h0.3
		c1,0,1.8-0.9,2.3-1.9l0.2-0.3l0.6,0.5l-0.2,0.3c-0.7,1.3-1.7,2.2-3.2,2.2h-0.2c-0.6,2.2-1.8,4-3.3,4c-2.7,0-3.3-3.5-3.5-5.2
		c-0.5,2-1.2,5.2-3.3,5.2C13.1,27.4,12.6,25,12.6,22.4z M24.5,22.4c0.1-0.5,0.1-1.4,0.1-1.9c0-2.3-0.6-4.5-1.5-4.5
		c-0.6,0-0.8,0.9-0.8,1.6C22.3,19.4,23.2,21.6,24.5,22.4z"/>
	<path class="st0" d="M28.9,20.6l-0.2,0.3l-0.2,0.3L28,20.7l0.2-0.3c1.1-2.1,1.3-4.5,1.6-5.1c0.2-0.5,1.1-0.6,1.3-0.6
		c0.5,0,0.6,0.2,0.6,0.6c0,0.5-0.5,3.8-0.5,7.5c0,2.6,0.5,2.8,1,2.8c0.7,0,1.6-1,3.5-4.9l0.2-0.3l0.6,0.5l-0.2,0.3
		c-1.6,3.1-3.1,6.2-4.8,6.2c-1.7,0-2.5-1.2-2.5-5.1c0-0.5,0-1.1,0-1.8H28.9z M30.9,12.7c-0.7,0-1.3-0.5-1.3-1.3
		c0-0.7,0.6-1.3,1.3-1.3c0.7,0,1.3,0.6,1.3,1.3C32.1,12.2,31.6,12.7,30.9,12.7z"/>
	<path class="st0" d="M40.1,27.4c-2.2,0-3.6-1.6-3.6-3.3c0-1.7,1.4-2.9,3-2.9c0.3,0,0.5,0,0.8,0.1v0.5c-1.3,0-2.6,1.1-2.6,2.6
		c0,1.4,1,2.3,2.6,2.3c1.7,0,2.8-1.3,2.8-3.2c0-2.7-3.5-4.2-5.1-5.7l-1.6,3.5l-0.6-0.5l1.6-3.5c-0.8-0.7-1.1-1.3-1.1-2.2
		c0-1,0.8-1.8,1.6-1.8c0.8,0,1.2,0.5,1.2,1.2c0,0.6-0.3,1.4-0.4,1.9c1.9,1.4,6.4,2.4,6.4,5.7C44.9,24.8,43.2,27.4,40.1,27.4z
		 M37.3,14.5c0,0.4,0.2,0.9,0.6,1.3c0.2-0.4,0.3-0.9,0.3-1.3c0-0.3-0.2-0.6-0.5-0.6C37.5,13.9,37.3,14.2,37.3,14.5z"/>
	<path class="st0" d="M46.8,28.4l-1.2-0.4c0.5-1.7,0.5-3.7,0.5-5.6c0-4.2-0.7-8.3-0.7-12.6c0-2.6,1.2-3.9,2.4-3.9
		c3.1,0,0.9,9.6,0.2,13c0,0.2,0,0.4,0,0.5c0.9-1.9,2.6-4.9,4.7-4.9c1.6,0,2.4,1.1,2.4,3c0,2.7-0.7,4.9-0.7,7c0,0.6,0.2,0.9,0.5,0.9
		c0.6,0,2.1-2.4,3.3-4.9l0.2-0.3l0.6,0.5l-0.2,0.3c-1.4,2.9-3.2,6.2-4.9,6.2c-0.7,0-1.6-0.4-1.6-2.1c0-2.5,0.8-6.6,0.8-7.9
		c0-1.2-0.3-1.7-1-1.7c-1.7,0-3.1,3.3-4,5.4c0,0.3,0,0.6,0,0.9C48.3,24,48.1,26.6,46.8,28.4z M47.9,16.7C48.5,13.2,49.4,7,48,7
		c-0.4,0-0.8,0.4-0.8,1.6C47.3,10.4,47.6,13.7,47.9,16.7z"/>
	<path class="st0" d="M72.4,20.7l0.2-0.3l0.6,0.5l-0.2,0.3c-2.2,4.4-3.3,6.2-4.8,6.2c-1.9,0-2.7-2.3-2.7-9.2c0-9.9,1.8-14,3.9-14
		c0.6,0,1.1,0.4,1.1,1.8c0,3.1-1.6,9.2-2.8,13.2c0.2,5.1,0.6,6.3,1.4,6.3C69.9,25.4,71.1,23.4,72.4,20.7z M69.2,5.6
		c-0.7,0-1.4,6.2-1.5,11c1-3.6,1.8-7.9,1.8-10.3C69.6,5.8,69.5,5.6,69.2,5.6z"/>
	<path class="st0" d="M73.4,20.6l-0.2,0.3l-0.2,0.3l-0.6-0.5l0.2-0.3c1.1-2.1,1.3-4.5,1.6-5.1c0.2-0.5,1.1-0.6,1.3-0.6
		c0.5,0,0.6,0.2,0.6,0.6c0,0.5-0.5,3.8-0.5,7.5c0,2.6,0.5,2.8,1,2.8c0.7,0,1.6-1,3.5-4.9l0.2-0.3l0.6,0.5l-0.2,0.3
		c-1.6,3.1-3.1,6.2-4.8,6.2c-1.7,0-2.5-1.2-2.5-5.1c0-0.5,0-1.1,0-1.8H73.4z M75.3,12.7c-0.7,0-1.3-0.5-1.3-1.3
		c0-0.7,0.6-1.3,1.3-1.3c0.7,0,1.3,0.6,1.3,1.3C76.6,12.2,76,12.7,75.3,12.7z"/>
	<path class="st0" d="M84.5,27.4c-2.2,0-3.6-1.6-3.6-3.3c0-1.7,1.4-2.9,3-2.9c0.3,0,0.5,0,0.8,0.1v0.5c-1.3,0-2.6,1.1-2.6,2.6
		c0,1.4,1,2.3,2.6,2.3c1.7,0,2.8-1.3,2.8-3.2c0-2.7-3.5-4.2-5.1-5.7l-1.6,3.5l-0.6-0.5l1.6-3.5c-0.8-0.7-1.1-1.3-1.1-2.2
		c0-1,0.8-1.8,1.6-1.8c0.8,0,1.2,0.5,1.2,1.2c0,0.6-0.3,1.4-0.4,1.9c1.9,1.4,6.4,2.4,6.4,5.7C89.4,24.8,87.6,27.4,84.5,27.4z
		 M81.8,14.5c0,0.4,0.2,0.9,0.6,1.3c0.2-0.4,0.3-0.9,0.3-1.3c0-0.3-0.2-0.6-0.5-0.6C82,13.9,81.8,14.2,81.8,14.5z"/>
	<path class="st0" d="M91,15.6h-1.4l0.2-0.9h1.4c0.3-2.1,0.6-4.2,0.9-6.4h1.6c-0.1,0.9-0.3,3.6-0.5,6.4h3L96,15.6h-2.9
		c-0.2,2.4-0.3,4.7-0.3,5.9c0,3.2,0.4,4.1,1.2,4.1c1.1,0,2.6-2.3,3.9-4.9l0.2-0.3l0.6,0.5l-0.2,0.3c-1.9,3.9-3.8,6.2-5.4,6.2
		c-1.6,0-2.6-1.4-2.6-5.1C90.6,20.1,90.8,17.9,91,15.6z"/>
</g>
</svg>
