<?xml version="1.0" encoding="utf-8"?>
<!-- Generator: Adobe Illustrator 23.0.3, SVG Export Plug-In . SVG Version: 6.00 Build 0)  -->
<svg version="1.1" id="Layer_1" xmlns="http://www.w3.org/2000/svg" xmlns:xlink="http://www.w3.org/1999/xlink" x="0px" y="0px"
	 viewBox="0 0 131 29" style="enable-background:new 0 0 131 29;" xml:space="preserve">
<style type="text/css">
	.st0{fill:#1A2A16;}
</style>
<title>Group 10</title>
<desc>Created with Sketch.</desc>
<g>
	<path class="st0" d="M23.4,17.9c0.1-3.2,0.6-6.8,0.6-6.8l2.1-0.6c0,0-0.6,3.9-0.6,9.3c0,4.4,1.2,5.8,2.7,5.8
		c2.8,0,4.4-5.5,4.4-11.1c0-7.3-1.9-9.3-3.4-9.3c-1,0-1.7,0.8-2.1,1.3l-0.6-0.4c0.4-0.7,1.8-2.2,3.5-2.2c2.5,0,4,3.6,4,8.9
		c0,6.7-1.9,13.5-6,13.5c-2.4,0-4.1-2-4.6-5.7c-1,2.7-3,5.1-5.3,5.1c-2.1,0-4.1-1.2-4.1-5.3c0-4.8,3-10,3-13.7
		c0-1.6-0.7-2.3-1.8-2.3c-3.7,0-6.4,5.3-6.4,9c0,1.7,0.5,2.6,1.6,2.6c1.3,0,2.7-1.7,3.4-4.2l0.6,0.3c-0.5,1.6-1.9,4.5-4.3,4.5
		c-1.7,0-2.8-1.1-2.8-3.4c0-4.5,4.4-9.6,8.3-9.6c2.2,0,3.5,1.1,3.5,3.6c0,3.7-2.8,9.5-2.8,14.1c0,2.4,0.8,3.3,2.2,3.3
		C20.7,24.8,22.9,21.2,23.4,17.9z"/>
	<path class="st0" d="M36.1,20L36,20.2l-0.1,0.3l-0.5-0.4l0.1-0.3c0.9-1.8,1.1-3.7,1.3-4.3c0.2-0.4,0.9-0.5,1.1-0.5
		c0.4,0,0.5,0.1,0.5,0.5c0,0.4-0.4,3.2-0.4,6.3c0,2.2,0.5,2.4,0.9,2.4c0.6,0,1.3-0.8,3-4.1l0.1-0.3l0.5,0.4l-0.1,0.3
		c-1.3,2.6-2.6,5.2-4,5.2c-1.4,0-2.1-1-2.1-4.3c0-0.4,0-1,0-1.5H36.1z M37.7,13.4c-0.6,0-1.1-0.5-1.1-1.1c0-0.6,0.5-1.1,1.1-1.1
		c0.6,0,1.1,0.5,1.1,1.1C38.8,13,38.3,13.4,37.7,13.4z"/>
	<path class="st0" d="M45.4,25.7c-1.9,0-3-1.3-3-2.7c0-1.4,1.2-2.4,2.5-2.4c0.2,0,0.4,0,0.7,0.1V21c-1.1,0-2.2,1-2.2,2.2
		c0,1.1,0.8,1.9,2.2,1.9c1.4,0,2.3-1.1,2.3-2.7c0-2.2-2.9-3.5-4.3-4.8l-1.3,2.9l-0.5-0.4l1.3-2.9c-0.6-0.6-0.9-1.1-0.9-1.9
		c0-0.8,0.7-1.5,1.4-1.5c0.7,0,1,0.4,1,1c0,0.5-0.2,1.2-0.4,1.6c1.6,1.2,5.4,2,5.4,4.8C49.5,23.5,48.1,25.7,45.4,25.7z M43.1,14.9
		c0,0.3,0.1,0.7,0.5,1.1c0.2-0.4,0.3-0.7,0.3-1.1c0-0.3-0.2-0.5-0.4-0.5C43.3,14.4,43.1,14.6,43.1,14.9z"/>
	<path class="st0" d="M51.1,26.6l-1-0.3c0.4-1.5,0.5-3.1,0.5-4.7c0-3.5-0.6-6.9-0.6-10.6c0-2.2,1-3.3,2-3.3c2.6,0,0.8,8,0.2,10.9
		c0,0.1,0,0.3,0,0.4c0.7-1.6,2.2-4.1,3.9-4.1c1.3,0,2,0.9,2,2.5c0,2.3-0.6,4.1-0.6,5.9c0,0.5,0.1,0.8,0.4,0.8c0.5,0,1.7-2,2.8-4.1
		l0.1-0.3l0.5,0.4l-0.1,0.3c-1.2,2.4-2.7,5.2-4.1,5.2c-0.6,0-1.4-0.4-1.4-1.7c0-2.1,0.7-5.5,0.7-6.6c0-1-0.3-1.4-0.8-1.4
		c-1.4,0-2.6,2.8-3.3,4.5c0,0.3,0,0.5,0,0.7C52.3,22.9,52.2,25.1,51.1,26.6z M52,16.7c0.6-2.9,1.3-8.1,0.1-8.1
		c-0.3,0-0.6,0.4-0.6,1.4C51.5,11.4,51.7,14.2,52,16.7z"/>
	<path class="st0" d="M75.6,10.9c0.9-0.8,1.5-2,1.5-3.5c0-1.6-0.8-2.9-2.3-2.9c-1.2,0-2.3,1.1-2.3,3.2c0,2.1,0.8,6,0.8,10.6
		c0,2.4-0.9,4.2-2,5.4c3,1.3,5.5,3.7,8.7,3.7c1,0,1.8-0.2,2.4-0.5l0.3,0.4c-0.7,0.6-2.7,1.5-4.4,1.5c-3.8,0-6.3-2.4-8.4-3.9
		c-1,0.6-2.1,1-3,1c-1.5,0-1.9-0.8-1.9-1.5c0-0.8,1-1.6,2.6-1.6c0.9,0,1.7,0.2,2.5,0.4c0.6-1,1.1-2.5,1.1-4.6
		c0-4.6-0.8-7.4-0.8-10.6c0-2.8,2.2-4.3,4.3-4.3c2.3,0,3.9,1.5,3.9,3.3c0,2-1.5,3.5-2.5,4.3L75.6,10.9z M69.1,24.4
		c-0.7-0.5-1.4-0.8-2.1-0.8c-0.8,0-1.3,0.3-1.3,0.8c0,0.5,0.5,0.8,1.2,0.8C67.5,25.2,68.3,24.9,69.1,24.4z"/>
	<path class="st0" d="M78.4,20l-0.1,0.3l-0.1,0.3l-0.5-0.4l0.1-0.3c0.9-1.8,1.1-3.7,1.3-4.3c0.2-0.4,0.9-0.5,1.1-0.5
		c0.4,0,0.5,0.1,0.5,0.5c0,0.4-0.4,3.2-0.4,6.3c0,2.2,0.5,2.4,0.9,2.4c0.6,0,1.3-0.8,3-4.1l0.1-0.3l0.5,0.4l-0.1,0.3
		c-1.3,2.6-2.6,5.2-4,5.2c-1.4,0-2.1-1-2.1-4.3c0-0.4,0-1,0-1.5H78.4z M80,13.4c-0.6,0-1.1-0.5-1.1-1.1c0-0.6,0.5-1.1,1.1-1.1
		c0.6,0,1.1,0.5,1.1,1.1C81.1,13,80.6,13.4,80,13.4z"/>
	<path class="st0" d="M87.7,25.7c-1.9,0-3-1.3-3-2.7c0-1.4,1.2-2.4,2.5-2.4c0.2,0,0.4,0,0.7,0.1V21c-1.1,0-2.2,1-2.2,2.2
		c0,1.1,0.8,1.9,2.2,1.9c1.4,0,2.3-1.1,2.3-2.7c0-2.2-2.9-3.5-4.3-4.8l-1.3,2.9L84,20.1l1.3-2.9c-0.6-0.6-0.9-1.1-0.9-1.9
		c0-0.8,0.7-1.5,1.4-1.5c0.7,0,1,0.4,1,1c0,0.5-0.2,1.2-0.4,1.6c1.6,1.2,5.4,2,5.4,4.8C91.8,23.5,90.3,25.7,87.7,25.7z M85.4,14.9
		c0,0.3,0.1,0.7,0.5,1.1c0.2-0.4,0.3-0.7,0.3-1.1c0-0.3-0.2-0.5-0.4-0.5C85.6,14.4,85.4,14.6,85.4,14.9z"/>
	<path class="st0" d="M93.2,15.8H92l0.1-0.8h1.1c0.2-1.8,0.5-3.6,0.7-5.4h1.3c-0.1,0.8-0.3,3-0.4,5.4h2.5l-0.1,0.8h-2.5
		c-0.1,2-0.2,3.9-0.2,5c0,2.7,0.3,3.5,1,3.5c0.9,0,2.2-1.9,3.3-4.1l0.1-0.3l0.5,0.4l-0.1,0.3c-1.6,3.3-3.2,5.2-4.5,5.2
		c-1.3,0-2.1-1.2-2.1-4.3C92.8,19.6,93,17.7,93.2,15.8z"/>
</g>
<image style="overflow:visible;" width="3840" height="1235" xlink:href="32EC2868.jpg"  transform="matrix(1 0 0 1 -1882.288 274.0638)">
</image>
</svg>
